<svg xmlns="http://www.w3.org/2000/svg" xmlns:xlink="http://www.w3.org/1999/xlink" width="691.913" height="528.309" viewBox="0 0 691.913 528.309"><defs><clipPath id="a"><path d="M167.676-426a27.26,27.26,0,0,0-26.952,23.181c-4.369,16.1-10.065,52.3-4.254,57.976h36.761l.011-.2a27.258,27.258,0,0,0,24.223-27.087v-26.62A27.254,27.254,0,0,0,170.211-426Z" transform="translate(-134 426)" fill="none" clip-rule="evenodd"/></clipPath><clipPath id="b"><path d="M381.556,87.01H0V-453H381.556Z" transform="translate(0 453)" fill="none"/></clipPath><clipPath id="c"><path d="M141.889-410.422c-7.346,13.692-6.473,48.422,3.021,50.869,3.786.976,11.851-1.415,20.059-6.362l-5.152,36.451H190.24L179.768-378.28c5.841-6.856,9.794-15.258,9.133-24.673C187-430.081,149.235-424.113,141.889-410.422Z" transform="translate(-137 422)" fill="none" clip-rule="evenodd"/></clipPath><clipPath id="e"><path d="M143.258-425c-14.679,0-19.313,6.83-23.258,12.63,2.95,10.122,14.4,11.623,24.571,17.933A6.937,6.937,0,0,1,148.964-396a6.972,6.972,0,0,1,6.972,6.972,6.972,6.972,0,0,1-6.972,6.972q-.16,0-.317-.007c-1.4,15.057-.84,32.252,3.338,36.333h36.761C190.794-381.313,171-367.532,171-401.038c-1.234-1.206-2.4-2.4-3.554-3.428l.04-.986Q157.937-425,143.258-425Z" transform="translate(-120 425)" fill="none" clip-rule="evenodd"/></clipPath><clipPath id="g"><path d="M238.6-163.693q-45.614,12.758-78.709,12.758t-61.48-19.648q44.638-13.1,73.522-13.1T238.6-163.693Z" transform="translate(-98.408 183.677)" fill="none" clip-rule="evenodd"/></clipPath><clipPath id="i"><path d="M181.22-116.642a7.176,7.176,0,0,0,.737-1.44C186.022-128.832,251.13-244.8,257.616-266h-73.3c-4.932,16.12-27.128,117.281-30.252,137.464C144.206-96.7,123.913,6.408,121.322,13.551c-2.725,7.514,12.609,15.342,16.695,6.1,6.5-14.7,21.993-55.371,28.891-80.2C173.375-83.832,178.641-104.777,181.22-116.642Z" transform="translate(-121 266)" fill="none" clip-rule="evenodd"/></clipPath><clipPath id="k"><path d="M55.548-102.484C85.314-94.961,194.192-81.36,201.664-79.227c7.686,2.195,14.425-13.648,4.925-17.08-15.117-5.461-56.77-18.077-82.025-23.226-20.313-4.141-38.849-7.521-51.294-9.5C74.324-163.99,79.144-247.881,75.985-266H11.126c3.029,17.375,28.636,144.152,33.395,156.842,1.51,4.531,6.017,6.533,11.026,6.674Z" transform="translate(-11.126 266)" fill="none" clip-rule="evenodd"/></clipPath><clipPath id="m"><path d="M12.528-135.3q5.962-1.109,8.738-.619a63.6,63.6,0,0,1,9.657,2.863L18.507-62.645Q8.95-61.5,9.269-67.541T9.695-77.6l-8.819-35.3a1.268,1.268,0,0,1,.923-1.537l.035-.008,5.474-1.2h0q3.519-5.024,4.123-8.446.49-2.781-.892-8.076h0a2.535,2.535,0,0,1,1.813-3.093Q12.439-135.282,12.528-135.3Z" transform="translate(-0.838 136.068)" fill="none" clip-rule="evenodd"/></clipPath><clipPath id="o"><path d="M281.4-39.974q2.127,5.679,2.127,8.5a63.609,63.609,0,0,1-1.142,10.007h-71.5q-2.787-9.213,3.218-9.948t9.976-1.327l33.231-14.815a1.268,1.268,0,0,1,1.674.642l.014.033,2.136,5.182h0q5.558,2.593,9.034,2.593,2.824,0,7.8-2.281h0a2.535,2.535,0,0,1,3.361,1.248Q281.363-40.058,281.4-39.974Z" transform="translate(-210 47.668)" fill="none" clip-rule="evenodd"/></clipPath><clipPath id="q"><path d="M209.995-264.705q-42.871-12.266-81.128,0c-8.873,40.485-30.434,56.553-34.226,118.623,43.1,21.415,96.34-15.273,140.707,5.611C248.024-169.682,230.277-240.031,209.995-264.705Z" transform="translate(-94.641 270.838)" fill="none" clip-rule="evenodd"/></clipPath><clipPath id="s"><path d="M279.515-290.274l-27.758.1q45.656,102.742,47.611,107.588c2.933,7.269-3.274,18.34-5.928,24.29,8.645,3.869,7.724-10.458,18.63-5.384,9.954,4.631,17.527,13.022,29.027,5.926,1.414-.872,2.963-4.157-.78-6.724-9.327-6.4-22.768-17.588-24.584-21.273q-3.715-7.536-36.219-104.527ZM44.087-314.53c5.608,4.675,11.3,9.847,10.3,12.342s-6.215,1.567-7.079,5.4q-.864,3.837,25.393,1.247l40.611,16.1,8.98-22.423-50.05-6.827Q57.223-317.04,44.61-320C42.243-320.065,38.479-319.205,44.087-314.53Z" transform="translate(-41.163 320)" fill="none" clip-rule="evenodd"/></clipPath><clipPath id="u"><path d="M281.106-366l-21.733,1.448c-5.352,48.425-34.507,79.012-99.783,68.657l-8.672,62.361c61.01,7.885,114.517-16.541,125.483-82.675C279.238-333.33,281.48-351.146,281.106-366Z" transform="translate(-150.917 366)" fill="none" clip-rule="evenodd"/></clipPath><clipPath id="w"><path d="M125.643-371l-.017.02L92.7-363.438c0,56.07-17.682,92.047-27.015,133.165l-.28,1.248h88.932c1.253,14.389,2.022,29.178,2.423,44.367h66.589Q200.712-305.088,127.8-371h-2.157Z" transform="translate(-65.402 371)" fill="none" clip-rule="evenodd"/></clipPath><clipPath id="y"><path d="M123.887-322.74q3.438,52.938-4.044,80.8h18.075c-2.427-27.877-6.669-54.252-13.562-79.124Z" transform="translate(-119.844 322.74)" fill="none" clip-rule="evenodd"/></clipPath><clipPath id="aa"><path d="M259.965-482.028,87.317-506.292,68.708-373.879l172.647,24.264Z" transform="translate(-68.708 506.292)" fill="none"/></clipPath><clipPath id="ab"><path d="M155.877-447.609c-9.264,12.647-13.268,47.466-4.123,51.244,3.647,1.507,12.044.251,20.943-3.538L162.43-364.211l30.407,4.273-3.614-50.24c6.8-6.029,11.931-13.868,12.593-23.367C203.723-460.913,165.142-460.256,155.877-447.609Z" transform="translate(-146.586 456.014)" fill="none" clip-rule="evenodd"/></clipPath><clipPath id="ac"><path d="M738,127H-462V-761H738Z" transform="translate(462 761)" fill="none"/></clipPath><clipPath id="ae"><path d="M176.2-455.666c.755-.318,2.335-.989,3.118-1.2.186-.052,1.531-.752,1.563-.737.882.443,3.4,1.972,3.492,3,.025.081.05.156.076.223.283.744.532,1.5.764,2.264.509,1.675.908,3.407,1.281,5.122.726,3.34,1.287,6.732,1.766,10.12.487,3.449.825,6.916,1.263,10.372.63,4.973,1.641,9.88,2.262,14.85a28.361,28.361,0,0,1-.238,9.447c-.007.038-.014.075-.023.113,0,.016-.008.031-.011.046q-.157.718-.364,1.432c-.12.407-.24.816-.364,1.224-.851-2.522-1.389-5.245-2-7.844-.06-.254-.115-.51-.168-.766q-.358-.815-.733-1.622c-1.57-3.4-3.149-6.787-4.628-10.231a170.915,170.915,0,0,0-8.642-18.321c-.995-1.718-2.021-3.416-3-5.145q-.835-1.475-1.606-2.988c-.367-.721-2.04-3.292-1.124-4.566A37.56,37.56,0,0,1,176.2-455.666Z" transform="translate(-168.609 457.606)" fill="none" clip-rule="evenodd"/></clipPath><clipPath id="ah"><path d="M141.383-456.785c-.709.132-.182-1.23.544-1.634,3.362-1.87,15.1-1.07,24.915,2.449a49.552,49.552,0,0,1,18.741,12.221c4.308,4.74,6.749,11.711,7.593,18.233a49.376,49.376,0,0,1-1.765,20.381c-.431,1.454-1.106,2.8-1.576,4.219a34.033,34.033,0,0,1-1.662,4.667c-.464.929-1.153,1.807-1.57,2.749a6.753,6.753,0,0,0-.355,3.307,36.309,36.309,0,0,0,.743,5.69c.627,2.8,1.49,5.463,1.864,8.331.5,3.816,3.053,16.365-.5,19.188l-58.937-8.283c2.053-3.838,7.177-7.974,8.687-12.179.89-2.477,1.926-8.014,2.01-8.209,2.614-8.965,5.822-12.97,7.669-14.328s4.079-1.541,4.384-2.9c1.26-5.625-.237-11.4-1.151-16.939-1.089-6.607-1.627-13.3-2.78-19.891C147.726-442.634,145.066-457.472,141.383-456.785Z" transform="translate(-129.417 459.399)" fill="none" clip-rule="evenodd"/></clipPath><clipPath id="ak"><path d="M162.683-394.9c-12.708,2.1-12.458,10.158-28.908,15.972l1.172.956c14.2-3.651,19.01-15.087,28.476-15.719Zm-4.133-42.666c-3.885,13.994-5.579,22.061-17.57,36.28l1,.465c11.994-12.162,15.151-23.021,17.535-36.53Zm15.58,12.614c-5.553,9.463-8.276,15.13-20.984,21.633l.805.751c12.4-4.891,16.829-12.179,20.991-21.843Zm-27.26-22.381c1.232,7.361,1.181,11.191-.65,20.755l1.09.153c3.314-8.8,2.7-17.614.931-20.715Z" transform="translate(-133.775 447.335)" fill="none" clip-rule="evenodd"/></clipPath><clipPath id="am"><path d="M195.881-205.742H96.649l-13,158H231.362Z" transform="translate(-83.647 205.742)" fill="none" clip-rule="evenodd"/></clipPath><clipPath id="an"><path d="M388.582,45.244H0V-259.742H388.582Z" transform="translate(0 259.742)" fill="none"/></clipPath><clipPath id="ao"><path d="M132.433-205.742h-30.52l-18.267,158h84.267Z" transform="translate(-83.647 205.742)" fill="none" clip-rule="evenodd"/></clipPath><clipPath id="aq"><path d="M272.224-233.253l-.37-.214c-10.609-5.91-27.935,2.116-27.923,11.038.036,27.009,24.824,154.3,26.118,162.35s15.158,10.172,15.966.026c1.285-16.144,3.671-72.031,1.283-97.9-.986-10.679-2.047-20.849-3.093-29.922q19.507,35.034,60.348,100.329l14.78-6.715q-17.409-57.036-28.55-80.532c-12.718-26.82-24.642-49.789-29.661-57.879C293.227-245.4,279.485-240.958,272.224-233.253Z" transform="translate(-243.932 240.691)" fill="none" clip-rule="evenodd"/></clipPath><clipPath id="as"><path d="M338.142-115.377l-50.727-119.5c-12.152-19.439-46.224,3.956-42.08,15.23,9.409,25.6,57.259,108.463,60.062,116.089Z" transform="translate(-244.988 242.335)" fill="none" clip-rule="evenodd"/></clipPath><clipPath id="au"><path d="M287.578-102.453q5.12,4.14,6.609,6.718a63.8,63.8,0,0,1,4.035,9.293l-62.458,36.06Q228.7-57,233.571-60.671t8.048-6.187l21.749-29.9a1,1,0,0,1,1.4-.22l.021.016,4.7,3.61h0q6.16-.544,9.2-2.3,2.594-1.5,6-6.393h0a2,2,0,0,1,2.784-.5Q287.522-102.5,287.578-102.453Z" transform="translate(-231.58 102.898)" fill="none" clip-rule="evenodd"/></clipPath><clipPath id="aw"><path d="M384.078-66.929q2.364,6.146,2.364,9.122a63.8,63.8,0,0,1-1.152,10.065H313.17q-2.811-9.267,3.246-10.006t10.063-1.334L360.263-74.1a1,1,0,0,1,1.32.508l.01.024,2.264,5.476h0q5.607,2.609,9.113,2.609,3,0,8.391-2.537h0a2,2,0,0,1,2.661.959Q384.052-67,384.078-66.929Z" transform="translate(-312.279 74.186)" fill="none" clip-rule="evenodd"/></clipPath><clipPath id="ay"><path d="M143.733-213.248c0,33.9,16.191,112.987,16.2,120.452l34.837.027q-7.648-105.848-5.424-106.988c2.224-1.14,91.182,8.832,117.862,8.832,38.473,0,54.388-24.125,55.679-68.816H286.676c-15.518,1.651-96.459,17.886-126.518,23.466C147.289-233.886,143.733-222.587,143.733-213.248Z" transform="translate(-143.733 259.742)" fill="none" clip-rule="evenodd"/></clipPath><clipPath id="ba"><path d="M365.331-367.7,40.348-413.375,7.137-177.068,332.12-131.395Z" transform="translate(-7.137 413.375)" fill="none"/></clipPath><clipPath id="bb"><path d="M311.044-262.153l-26.529-3.622q13.443,82.529,14.721,87.642c1.916,7.67-5.85,17.851-9.342,23.418,8.11,5.079,9.2-9.355,19.4-2.755,9.314,6.024,15.715,15.467,28.222,10,1.538-.672,3.549-3.734.163-6.824-8.438-7.7-20.32-20.763-21.621-24.7q-2.661-8.047-5.016-83.161ZM152.2-289.506l-40.857,29.925q-16.625,4.47-27.778,11.127c-1.756,1.6-3.878,4.83,3.407,4.273s14.974-.815,15.98,1.664-3.4,5.442-1.368,8.788q2.033,3.346,19.195-16.768l40.464-16.728Z" transform="translate(-81.865 289.506)" fill="none" clip-rule="evenodd"/></clipPath><clipPath id="be"><path d="M297.777-383.723l-10.708-3.419q-38.256,66.622-116.967,114.4l29.509,48.1C254.371-272.8,291.322-325.232,297.777-383.723Z" transform="translate(-170.103 387.142)" fill="none" clip-rule="evenodd"/></clipPath><clipPath id="bh"><path d="M237.138-239.468l-97.7-13.73q45.524-77.574,53.613-135.131l30.086-.238C241.079-348.155,241.19-301.488,237.138-239.468Z" transform="translate(-139.442 388.567)" fill="none" clip-rule="evenodd"/></clipPath><clipPath id="bk"><path d="M157.246-388.751q-3.47-.367-10.578-1.051h0l-9.974,19.3q-6.348,36.966-34.226,147.78h0l64.042,9q-1.344,7.736-3.035,15.57h0l47.618,6.692Q217.306-313.2,159.2-388.476h0l-.026.018-.009-.023Z" transform="translate(-102.467 389.802)" fill="none" clip-rule="evenodd"/></clipPath><clipPath id="bn"><path d="M142.449-215.742l17.9,2.516a336.388,336.388,0,0,0,5.172-67.372Q155.982-232.546,142.449-215.742Z" transform="translate(-142.449 280.599)" fill="none" clip-rule="evenodd"/></clipPath><clipPath id="bq"><path d="M188.04-254.462l-29.521-19.083L156.461-258.9Z" transform="translate(-156.461 273.544)" fill="none" clip-rule="evenodd"/></clipPath><clipPath id="bs"><path d="M463.106-466.032c-7.672,14.3-6.761,50.575,3.155,53.131,3.954,1.019,12.378-1.478,20.952-6.645l-5.381,38.072h31.776L502.669-432.46c6.1-7.161,10.23-15.937,9.54-25.771C510.221-486.566,470.779-480.332,463.106-466.032Z" transform="translate(-458 478.125)" fill="none" clip-rule="evenodd"/></clipPath><clipPath id="bt"><path d="M413-374.127H593.064V-513H413Z" transform="translate(-413 513)" fill="none"/></clipPath><clipPath id="bu"><path d="M480.58-479.557c-8.916.765-16.877,3.483-19.133,5.1,0,8.441,1.635,10.945,15.605,10.724,3.432,1.813,6.071,4.934,8.819,9.026q-1.823,25.415-9.652,25.416c-7.829,0-14.471-4.97-17.905-4.97-2.5,0-1.945,3.134-.285,5.457,1.369,1.917,8.038,3.764,8.038,6.736s-5.269.673-5.269,2.435c0,2.915-.926,8.4,4.134,8.4,5.121,0,19.8-1.866,22.318-9.466q2.435-7.357,3.15-30.488a7.388,7.388,0,0,1,.947-.059,7.944,7.944,0,0,1,7.944,7.944,7.919,7.919,0,0,1-2.393,5.683c1.838,2.595,3.9,5.3,6.259,8.1,8.868-5.32,15.449-20.9,6.779-35.858-2.4-7.33-7.822-11.245-14.229-13.063A23.047,23.047,0,0,0,480.58-479.557Z" transform="translate(-456.608 480.353)" fill="none" clip-rule="evenodd"/></clipPath><clipPath id="bw"><path d="M543.283-301,479.717-132.473,435.162-8.26H409.757L471-301Z" transform="translate(-409.757 301)" fill="none" clip-rule="evenodd"/></clipPath><clipPath id="bx"><path d="M330,16.76H726.612V-301H330Z" transform="translate(-330 301)" fill="none"/></clipPath><clipPath id="by"><path d="M549.455-301c.691,57.825.191,135.677,1.8,139.281q1.61,3.6,100.15,82.138l-13.095,22.31q-116.99-75.591-122.971-85.662C509.359-153,479.311-245.68,463.677-301Z" transform="translate(-463.677 301)" fill="none" clip-rule="evenodd"/></clipPath><clipPath id="ca"><path d="M651.367-97.933l-22.155-16.852L611.243-93.37Q609.111-69.2,595.113-39.13l4.057,3.4,32.517-38.752,9.1-14.959,2.028,1.7Z" transform="translate(-595.113 114.785)" fill="none" clip-rule="evenodd"/></clipPath><clipPath id="cc"><path d="M445.205-27.821l-1.331-27.8H415.918Q396.034-41.723,364-33.117v5.3h50.587l17.306-2.648v2.648Z" transform="translate(-364 55.625)" fill="none" clip-rule="evenodd"/></clipPath><clipPath id="ce"><path d="M675.434-439.019,339.788-386.71l34.4,271.393,335.646-52.309Z" transform="translate(-339.788 439.019)" fill="none"/></clipPath><clipPath id="cf"><path d="M596.947-324.88l-27.384,3.958Q606.432-242.715,609.158-238c4.089,7.079-.725,19.411-2.607,25.94,9.5,2.737,6.472-11.92,18.488-8.267,10.968,3.334,20.017,10.9,30.883,1.9,1.336-1.106,2.462-4.723-1.783-6.829-10.575-5.247-26.1-14.85-28.514-18.39q-4.936-7.241-28.678-81.237ZM431.375-306.812l-32.058,41.388q-15.24,9.18-24.421,18.976c-1.29,2.087-2.476,5.906,4.6,3.277s14.641-5.076,16.347-2.9-1.828,6.379,1.145,9.126q2.973,2.746,14.289-22.137l35.427-28.158Z" transform="translate(-373.918 324.88)" fill="none" clip-rule="evenodd"/></clipPath><clipPath id="cg"><path d="M-368,195.077H1326.723V-850H-368Z" transform="translate(368 850)" fill="none"/></clipPath><clipPath id="ch"><path d="M675.434-439.019,339.788-391.847l34.4,244.741,335.646-47.172Z" transform="translate(-339.788 439.019)" fill="none"/></clipPath><clipPath id="ci"><path d="M497.869-413.044l-11.61-.348q-19.018,77.125-83.589,147.047l43.018,39.407C486.359-290.412,508.123-353.062,497.869-413.044Z" transform="translate(-402.669 413.392)" fill="none" clip-rule="evenodd"/></clipPath><clipPath id="cl"><path d="M557.712-276.475,456.756-262.287q23.117-90.083,14.752-149.6l29.817-8.809C530.658-385.638,544.066-339.281,557.712-276.475Z" transform="translate(-456.756 420.698)" fill="none" clip-rule="evenodd"/></clipPath><clipPath id="co"><path d="M495.761-420.494q-3.551.624-10.807,1.97h0L480.546-396.5q4.228,38.555,8.11,156.652h0l66.179-9.3q.869,8.072,1.422,16.342h0l49.207-6.916Q576.947-362.508,497.785-420.778h0l-.02.025-.016-.02Z" transform="translate(-480.546 420.778)" fill="none" clip-rule="evenodd"/></clipPath><clipPath id="cr"><path d="M528-261.616l18.5-2.6a348.108,348.108,0,0,0-14.058-68.441Q536.649-282.176,528-261.616Z" transform="translate(-527.995 332.658)" fill="none" clip-rule="evenodd"/></clipPath><clipPath id="cu"><path d="M531.594-305.633l-34.761-10.557,2.128,15.143Z" transform="translate(-496.833 316.191)" fill="none" clip-rule="evenodd"/></clipPath></defs><g transform="translate(-745.693 -5121.691)"><g transform="translate(1085 5144.216)"><g transform="translate(120.341)" clip-path="url(#a)"><g transform="translate(-148.229 -34.226)" clip-path="url(#b)"><path d="M205.141-337.167H129V-431h76.141Z" transform="translate(12.891 458.888)" fill="#191846"/></g></g><g transform="translate(126.763 5.071)" clip-path="url(#c)"><g transform="translate(-154.651 -39.297)" clip-path="url(#b)"><path d="M197.917-321.787H132V-427h65.917Z" transform="translate(16.313 459.958)" fill="#d3a081"/></g></g><g transform="translate(132.659 1.268)" clip-path="url(#e)"><g transform="translate(-160.547 -35.494)" clip-path="url(#b)"><path d="M196.57-338.05H115V-430h81.57Z" transform="translate(39.209 459.155)" fill="#191846"/></g></g><g transform="translate(88.734 307.175)" clip-path="url(#g)"><g transform="translate(-116.622 -341.401)" clip-path="url(#b)"><path d="M246.274-143.258H93.408v-45.419H246.274Z" transform="translate(16.876 523.741)" fill="#1e27ce"/></g></g><g transform="translate(63.669 202.821)" clip-path="url(#i)"><g transform="translate(-91.557 -237.047)" clip-path="url(#b)"><path d="M265.293,31.527H116V-271H265.293Z" transform="translate(-30.781 501.709)" fill="#d3a081"/></g></g><g transform="translate(139.439 202.821)" clip-path="url(#k)"><g transform="translate(-167.327 -237.047)" clip-path="url(#b)"><path d="M218.928-71.343H6.126V-271h212.8Z" transform="translate(154.863 501.709)" fill="#d3a081"/></g></g><g transform="translate(322.522 367.526)" clip-path="url(#m)"><g transform="translate(-350.41 -401.752)" clip-path="url(#b)"><path d="M9.857-143.96-5.111-59.071,33.174-52.32l14.968-84.889Z" transform="translate(339.893 535.708)" fill="#e3e3e3"/></g></g><g transform="translate(13.944 479.585)" clip-path="url(#o)"><g transform="translate(-41.832 -513.811)" clip-path="url(#b)"><path d="M291.2-13.792H205V-52.668h86.2Z" transform="translate(-169.506 560.141)" fill="#e3e3e3"/></g></g><g transform="translate(88.734 196.688)" clip-path="url(#q)"><g transform="translate(-116.622 -230.914)" clip-path="url(#b)"><path d="M247.282-131.427H89.641V-275.838H247.282Z" transform="translate(20.643 500.414)" fill="#2b44ff"/></g></g><g transform="translate(0 134.369)" clip-path="url(#s)"><g transform="translate(-27.888 -168.595)" clip-path="url(#b)"><path d="M350.328-147.333H36.163V-325H350.328Z" transform="translate(-14.613 487.257)" fill="#d3a081"/></g></g><g transform="translate(32.131 76.058)" clip-path="url(#u)"><g transform="translate(-60.019 -110.284)" clip-path="url(#b)"><path d="M290.3-371.772,136.974-358.357,148.967-221.27,302.3-234.685Z" transform="translate(-94.373 474.739)" fill="#afb9c4"/></g></g><g transform="translate(112.819 69.72)" clip-path="url(#w)"><g transform="translate(-140.707 -103.946)" clip-path="url(#b)"><path d="M231.022-376H60.4v199.018H231.022Z" transform="translate(73.967 473.607)" fill="#c4ced6"/></g></g><g transform="translate(183.676 130.895)" clip-path="url(#y)"><g transform="translate(-211.564 -165.121)" clip-path="url(#b)"><path d="M145.595-327.74H114.844v93.475h30.751Z" transform="translate(90.382 486.523)" fill="rgba(0,0,0,0.1)"/></g></g></g><g transform="translate(745.693 5191)"><g transform="translate(126.478 0)" clip-path="url(#aa)"><g transform="translate(58.08 50.278)" clip-path="url(#ab)"><g transform="translate(-536.116 -304.986)" clip-path="url(#ac)"><path d="M214.493-456.64l-63.115-8.87L136.994-363.16l63.115,8.87Z" transform="translate(386.513 761)" fill="#d3a081"/></g></g></g><g transform="translate(126.478 0)" clip-path="url(#aa)"><g transform="translate(67.904 48.686)" clip-path="url(#ae)"><g transform="translate(-545.94 -303.394)" clip-path="url(#ac)"><path d="M204.264-459.311,165.221-464.8,156-399.174l39.043,5.487Z" transform="translate(377.738 761)" fill="#2c2c2c"/></g></g></g><g transform="translate(126.478 0)" clip-path="url(#aa)"><g transform="translate(66.408 46.893)" clip-path="url(#ah)"><g transform="translate(-544.444 -301.601)" clip-path="url(#ac)"><path d="M200.456-456.391,129.251-466.4,114.464-361.188,185.67-351.18Z" transform="translate(423.08 761)" fill="#8990db"/></g></g></g><g transform="translate(126.478 0)" clip-path="url(#aa)"><g transform="translate(85.022 58.956)" clip-path="url(#ak)"><g transform="translate(-563.058 -313.665)" clip-path="url(#ac)"><path d="M180.7-447.278l-44.005-6.185L125.512-373.9l44.005,6.184Z" transform="translate(431.79 761)" fill="rgba(0,0,0,0.2)"/></g></g></g><g transform="translate(155.081 300.55)" clip-path="url(#am)"><g transform="translate(-157.22 -54)" clip-path="url(#an)"><path d="M236.362-42.742H78.647v-168H236.362Z" transform="translate(73.574 259.742)" fill="#c4ced6"/></g></g><g transform="translate(218.529 300.55)" clip-path="url(#ao)"><g transform="translate(-220.669 -54)" clip-path="url(#an)"><path d="M172.914-42.742H78.647v-168h94.267Z" transform="translate(137.022 259.742)" fill="rgba(0,0,0,0.1)"/></g></g><g transform="translate(27.109 265.6)" clip-path="url(#aq)"><g transform="translate(-29.249 -19.051)" clip-path="url(#an)"><path d="M364.333-48.22h-125.4V-245.691h125.4Z" transform="translate(-214.683 259.742)" fill="#d3a081"/></g></g><g transform="translate(48.3 263.956)" clip-path="url(#as)"><g transform="translate(-50.44 -17.407)" clip-path="url(#an)"><path d="M296.417-256.036,238.58-234.986,290.863-91.337,348.7-112.388Z" transform="translate(-198.698 259.742)" fill="#1e27ce"/></g></g><g transform="translate(88.222 403.393)" clip-path="url(#au)"><g transform="translate(-90.361 -156.843)" clip-path="url(#an)"><path d="M296.64-116.75,223.752-74.668l18.222,31.562,72.888-42.082Z" transform="translate(-150.033 259.742)" fill="#e3e3e3"/></g></g><g transform="translate(0 432.105)" clip-path="url(#aw)"><g transform="translate(-2.14 -185.555)" clip-path="url(#an)"><path d="M391.443-42.742H307.279V-79.186h84.164Z" transform="translate(-310.139 259.742)" fill="#e3e3e3"/></g></g><g transform="translate(23.554 246.55)" clip-path="url(#ay)"><g transform="translate(-25.694)" clip-path="url(#an)"><path d="M367.889-87.769H138.733V-264.742H367.889Z" transform="translate(-118.04 259.742)" fill="#2b44ff"/></g></g><g transform="translate(21.112 92.917)" clip-path="url(#ba)"><g transform="translate(25.802 123.869)" clip-path="url(#bb)"><g transform="translate(-398.471 -471.494)" clip-path="url(#ac)"><path d="M354.165-265.252,78.45-304,60.688-177.617,336.4-138.868Z" transform="translate(323.148 761)" fill="#d3a081"/></g></g></g><g transform="translate(21.112 92.917)" clip-path="url(#ba)"><g transform="translate(67.554 26.233)" clip-path="url(#be)"><g transform="translate(-440.223 -373.857)" clip-path="url(#ac)"><path d="M305.465-391.3,173.954-398.2,164.7-221.582l131.511,6.892Z" transform="translate(267.837 761)" fill="#191846"/></g></g></g><g transform="translate(21.112 92.917)" clip-path="url(#ba)"><g transform="translate(126.03 24.808)" clip-path="url(#bh)"><g transform="translate(-498.699 -372.433)" clip-path="url(#ac)"><path d="M244.948-388.006l-107.6-15.122L115.68-248.942l107.6,15.122Z" transform="translate(377.372 761)" fill="#dce3e8"/></g></g></g><g transform="translate(21.112 92.917)" clip-path="url(#ba)"><g transform="translate(153.639 23.573)" clip-path="url(#bk)"><g transform="translate(-526.308 -371.198)" clip-path="url(#ac)"><path d="M219.544-381.765,98.812-398.732,71.273-202.781l120.732,16.968Z" transform="translate(447.183 761)" fill="#2f3576"/></g></g></g><g transform="translate(21.112 92.917)" clip-path="url(#ba)"><g transform="translate(199.69 132.776)" clip-path="url(#bn)"><g transform="translate(-572.359 -480.401)" clip-path="url(#ac)"><path d="M171.288-284.233l-28.017-3.937-10.777,76.683,28.017,3.938Z" transform="translate(434.218 761)" fill="rgba(0,0,0,0.1)"/></g></g></g><g transform="translate(21.112 92.917)" clip-path="url(#ba)"><g transform="translate(177.291 139.831)" clip-path="url(#bq)"><g transform="translate(-549.96 -487.456)" clip-path="url(#ac)"><path d="M193.687-273.362l-41.482-5.83-3.45,24.547,41.482,5.83Z" transform="translate(395.557 761)" fill="rgba(255,255,255,0.2)"/></g></g></g></g><g transform="translate(920 5121.691)"><g transform="translate(139.122 2.622)" clip-path="url(#bs)"><g transform="translate(-52.96 -41.044)" clip-path="url(#bt)"><path d="M453-374.7h67.377V-483.125H453Z" transform="translate(-405.925 518.285)" fill="#d3a081"/></g></g><g transform="translate(137.483 0)" clip-path="url(#bu)"><g transform="translate(-51.321 -38.422)" clip-path="url(#bt)"><path d="M451.607-404.47h69.163v-80.883H451.607Z" transform="translate(-406.171 517.891)" fill="#191846"/></g></g><g transform="translate(82.345 211.078)" clip-path="url(#bw)"><g transform="translate(-93.865)" clip-path="url(#bx)"><path d="M404.757-1.491h145.3V-306h-145.3Z" transform="translate(-316.776 300.116)" fill="#1e27ce"/></g></g><g transform="translate(145.803 211.078)" clip-path="url(#by)"><g transform="translate(-157.323)" clip-path="url(#bx)"><path d="M458.677-50.5h199.5V-306h-199.5Z" transform="translate(-307.238 300.116)" fill="#2b44ff"/></g></g><g transform="translate(300.489 430.232)" clip-path="url(#ca)"><g transform="translate(-312.009 -219.154)" clip-path="url(#bx)"><path d="M633.181-122.7,573.418-51.473l30.314,25.437L663.5-97.259Z" transform="translate(-286.942 332.54)" fill="#191846"/></g></g><rect width="135.522" height="91.657" rx="2.23" transform="translate(249.417 345.363) rotate(-32.69)" fill="#0f1446"/><path d="M513.26,472.114l-78.091,50.18a21.422,21.422,0,0,1-29.52-6.437l-12.112-18.809a3.858,3.858,0,0,1,1.177-5.329L502.272,422.7a3.876,3.876,0,0,1,5.329,1.159l12.113,18.809A21.439,21.439,0,0,1,513.26,472.114Z" transform="translate(-142.086 -148.31)" fill="#1e2d64"/><path d="M433.534,487.55h0a5.191,5.191,0,0,1-7.043-1.522l-5.5-8.652a5.127,5.127,0,0,1,8.652-5.5l5.5,8.652a5.191,5.191,0,0,1-1.609,7.025Z" transform="translate(-122.178 -113.688)" fill="#fff"/><path d="M463.679,468.184h0a5.087,5.087,0,0,1-7.025-1.523l-5.5-8.652a5.09,5.09,0,1,1,8.565-5.5l5.5,8.652a5.07,5.07,0,0,1-1.54,7.025Z" transform="translate(-100.156 -127.803)" fill="#fff"/><g transform="translate(28.495 499.857)" clip-path="url(#cc)"><g transform="translate(-40.014 -288.779)" clip-path="url(#bx)"><path d="M359-21.052h92.974V-60.625H359Z" transform="translate(-324.87 343.52)" fill="#191846"/></g></g><g transform="translate(0 48.645)" clip-path="url(#ce)"><g transform="translate(40.167 134.329)" clip-path="url(#cf)"><g transform="translate(-873.156 -618.008)" clip-path="url(#cg)"><path d="M648.148-340.207,361.813-299.966l18.566,132.107L666.715-208.1Z" transform="translate(497.097 940.176)" fill="#d3a081"/></g></g><path d="M482,459.239l-9.811,6.3-21.8-33.966-36.614,23.481,21.8,33.984-9.759,6.246-22.841-35.593a9.672,9.672,0,0,1,2.924-13.341l39.8-25.574a9.673,9.673,0,0,1,13.341,2.907Z" transform="translate(-135.866 -199.03)" fill="#1e2d64"/></g><g transform="translate(0 48.645)" clip-path="url(#ch)"><g transform="translate(74.004 30.16)" clip-path="url(#ci)"><g transform="translate(-906.994 -513.839)" clip-path="url(#cg)"><path d="M506.884-421.536l-134,30.937,41.462,179.593,134-30.937Z" transform="translate(499.055 925.79)" fill="#191846"/></g></g></g><g transform="translate(0 48.645)" clip-path="url(#ch)"><g transform="translate(137.658 21.562)" clip-path="url(#cl)"><g transform="translate(-970.647 -505.24)" clip-path="url(#cg)"><path d="M545.9-430.575l-112.61,15.826L455.9-253.894l112.61-15.826Z" transform="translate(509.741 924.192)" fill="#dce3e8"/></g></g></g><g transform="translate(0 48.645)" clip-path="url(#ch)"><g transform="translate(165.656 21.468)" clip-path="url(#co)"><g transform="translate(-998.646 -505.146)" clip-path="url(#cg)"><path d="M586.934-436.055,460.752-418.321l28.677,204.045L615.61-232.01Z" transform="translate(514.598 923.222)" fill="#2f3576"/></g></g></g><g transform="translate(0 48.645)" clip-path="url(#ch)"><g transform="translate(221.499 125.175)" clip-path="url(#cr)"><g transform="translate(-1054.488 -608.854)" clip-path="url(#cg)"><path d="M544.475-338.851,514.1-334.583l11.343,80.708,30.373-4.269Z" transform="translate(524.036 940.416)" fill="rgba(0,0,0,0.1)"/></g></g></g><g transform="translate(0 48.645)" clip-path="url(#ch)"><g transform="translate(184.824 144.555)" clip-path="url(#cu)"><g transform="translate(-1017.813 -628.234)" clip-path="url(#cg)"><path d="M535.472-325.735l-44.287,6.224,3.766,26.8,44.287-6.224Z" transform="translate(519.982 942.737)" fill="rgba(255,255,255,0.2)"/></g></g></g></g></g></svg>